<svg width="23" height="28" viewBox="0 0 23 28" fill="none" xmlns="http://www.w3.org/2000/svg">
<g filter="url(#filter0_d_23_1133)">
<path d="M19 13.2699C19 17.8373 15.6421 21.5399 11.5 21.5399C7.35786 21.5399 4 17.8373 4 13.2699C4 8.70257 7.35786 2 11.5 2C15.6421 2 19 8.70257 19 13.2699Z" fill="#ECFDFF"/>
<path d="M19 13.2699C19 17.8373 15.6421 21.5399 11.5 21.5399C7.35786 21.5399 4 17.8373 4 13.2699C4 8.70257 7.35786 2 11.5 2C15.6421 2 19 8.70257 19 13.2699Z" fill="url(#paint0_linear_23_1133)" fill-opacity="0.3"/>
</g>
<defs>
<filter id="filter0_d_23_1133" x="0" y="0" width="23" height="27.54" filterUnits="userSpaceOnUse" color-interpolation-filters="sRGB">
<feFlood flood-opacity="0" result="BackgroundImageFix"/>
<feColorMatrix in="SourceAlpha" type="matrix" values="0 0 0 0 0 0 0 0 0 0 0 0 0 0 0 0 0 0 127 0" result="hardAlpha"/>
<feOffset dy="2"/>
<feGaussianBlur stdDeviation="2"/>
<feComposite in2="hardAlpha" operator="out"/>
<feColorMatrix type="matrix" values="0 0 0 0 0 0 0 0 0 0.25098 0 0 0 0 0.619608 0 0 0 0.05 0"/>
<feBlend mode="normal" in2="BackgroundImageFix" result="effect1_dropShadow_23_1133"/>
<feBlend mode="normal" in="SourceGraphic" in2="effect1_dropShadow_23_1133" result="shape"/>
</filter>
<linearGradient id="paint0_linear_23_1133" x1="15.8269" y1="5" x2="10.7629" y2="14.7974" gradientUnits="userSpaceOnUse">
<stop stop-color="#A2E9FF"/>
<stop offset="1" stop-color="#00B5EE" stop-opacity="0"/>
</linearGradient>
</defs>
</svg>
