<svg width="17" height="19" viewBox="0 0 17 19" fill="none" xmlns="http://www.w3.org/2000/svg">
<path d="M15.4898 6.03846H10.6437V1.19231L15.4898 6.03846Z" fill="#22ABF3"/>
<path d="M15.9797 5.54865L11.1335 0.7025C11.0692 0.63823 10.9928 0.587267 10.9087 0.552521C10.8247 0.517776 10.7346 0.499929 10.6437 0.5H2.336C1.96878 0.5 1.6166 0.645879 1.35693 0.905545C1.09726 1.16521 0.951385 1.51739 0.951385 1.88462V17.1154C0.951385 17.4826 1.09726 17.8348 1.35693 18.0945C1.6166 18.3541 1.96878 18.5 2.336 18.5H14.7975C15.1648 18.5 15.5169 18.3541 15.7766 18.0945C16.0363 17.8348 16.1822 17.4826 16.1822 17.1154V6.03846C16.1822 5.94752 16.1644 5.85745 16.1296 5.77341C16.0949 5.68937 16.0439 5.613 15.9797 5.54865ZM11.336 2.86337L13.8188 5.34615H11.336V2.86337ZM14.7975 17.1154H2.336V1.88462H9.95139V6.03846C9.95139 6.22207 10.0243 6.39816 10.1542 6.528C10.284 6.65783 10.4601 6.73077 10.6437 6.73077H14.7975V17.1154Z" fill="#22ABF3"/>
</svg>
