<svg width="17" height="19" viewBox="0 0 17 19" fill="none" xmlns="http://www.w3.org/2000/svg">
<path d="M16.6947 0.640785C16.6149 0.578563 16.5219 0.535346 16.4229 0.51441C16.3238 0.493475 16.2213 0.495373 16.1231 0.519958L5.45707 3.18647C5.31285 3.22252 5.18482 3.30573 5.09333 3.4229C5.00183 3.54006 4.95212 3.68444 4.9521 3.8331V13.0059C4.39599 12.6343 3.73167 12.4593 3.06467 12.5085C2.39767 12.5577 1.76625 12.8285 1.27074 13.2777C0.775228 13.7269 0.444041 14.3288 0.329798 14.9878C0.215554 15.6467 0.324807 16.325 0.640198 16.9148C0.955589 17.5046 1.45903 17.972 2.07053 18.2429C2.68203 18.5138 3.36652 18.5726 4.01525 18.4099C4.66397 18.2472 5.23972 17.8724 5.65103 17.345C6.06233 16.8176 6.2856 16.1679 6.28535 15.4991V8.35366L15.6181 6.02047V10.3394C15.062 9.96781 14.3977 9.79274 13.7307 9.84199C13.0637 9.89123 12.4323 10.162 11.9368 10.6112C11.4413 11.0604 11.1101 11.6623 10.9958 12.3213C10.8816 12.9802 10.9908 13.6585 11.3062 14.2483C11.6216 14.8381 12.1251 15.3055 12.7366 15.5764C13.3481 15.8473 14.0326 15.9061 14.6813 15.7434C15.33 15.5807 15.9058 15.2059 16.3171 14.6785C16.7284 14.1511 16.9516 13.5014 16.9514 12.8326V1.16659C16.9514 1.0652 16.9283 0.965138 16.8838 0.874024C16.8394 0.782909 16.7747 0.703139 16.6947 0.640785ZM3.28553 17.1656C2.95592 17.1656 2.6337 17.0679 2.35964 16.8848C2.08557 16.7016 1.87196 16.4414 1.74582 16.1368C1.61969 15.8323 1.58668 15.4972 1.65099 15.1739C1.71529 14.8507 1.87402 14.5537 2.10709 14.3206C2.34016 14.0876 2.63712 13.9288 2.9604 13.8645C3.28368 13.8002 3.61877 13.8332 3.9233 13.9594C4.22782 14.0855 4.48811 14.2991 4.67123 14.5732C4.85436 14.8472 4.9521 15.1695 4.9521 15.4991C4.9521 15.9411 4.77652 16.365 4.46397 16.6775C4.15143 16.9901 3.72753 17.1656 3.28553 17.1656ZM6.28535 6.97874V4.3539L15.6181 2.0207V4.64555L6.28535 6.97874ZM13.9516 14.4991C13.6219 14.4991 13.2997 14.4014 13.0257 14.2183C12.7516 14.0351 12.538 13.7749 12.4119 13.4703C12.2857 13.1658 12.2527 12.8307 12.317 12.5074C12.3813 12.1841 12.5401 11.8872 12.7731 11.6541C13.0062 11.421 13.3032 11.2623 13.6264 11.198C13.9497 11.1337 14.2848 11.1667 14.5893 11.2929C14.8939 11.419 15.1541 11.6326 15.3373 11.9067C15.5204 12.1807 15.6181 12.5029 15.6181 12.8326C15.6181 13.0514 15.575 13.2681 15.4913 13.4703C15.4075 13.6725 15.2848 13.8562 15.13 14.011C14.9753 14.1658 14.7915 14.2885 14.5893 14.3723C14.3871 14.456 14.1704 14.4991 13.9516 14.4991Z" fill="#22ABF3"/>
</svg>
