<svg width="19" height="15" viewBox="0 0 19 15" fill="none" xmlns="http://www.w3.org/2000/svg">
<path d="M12.4392 6.92388L8.28532 4.15465C8.18104 4.08507 8.05981 4.04511 7.93459 4.03905C7.80937 4.03298 7.68485 4.06103 7.57433 4.1202C7.46381 4.17937 7.37142 4.26744 7.30704 4.37502C7.24266 4.48259 7.2087 4.60563 7.20878 4.73099V10.2695C7.2087 10.3948 7.24266 10.5179 7.30704 10.6254C7.37142 10.733 7.46381 10.8211 7.57433 10.8802C7.68485 10.9394 7.80937 10.9675 7.93459 10.9614C8.05981 10.9553 8.18104 10.9154 8.28532 10.8458L12.4392 8.07657C12.5341 8.01337 12.612 7.92769 12.6659 7.82714C12.7197 7.72659 12.7479 7.61429 12.7479 7.50022C12.7479 7.38616 12.7197 7.27385 12.6659 7.17331C12.612 7.07276 12.5341 6.98707 12.4392 6.92388ZM8.5934 8.97571V6.02907L10.8071 7.50022L8.5934 8.97571ZM16.9011 0.577148H1.67032C1.3031 0.577148 0.950916 0.723027 0.69125 0.982693C0.431584 1.24236 0.285706 1.59454 0.285706 1.96176V13.0387C0.285706 13.4059 0.431584 13.7581 0.69125 14.0178C0.950916 14.2774 1.3031 14.4233 1.67032 14.4233H16.9011C17.2683 14.4233 17.6205 14.2774 17.8802 14.0178C18.1398 13.7581 18.2857 13.4059 18.2857 13.0387V1.96176C18.2857 1.59454 18.1398 1.24236 17.8802 0.982693C17.6205 0.723027 17.2683 0.577148 16.9011 0.577148ZM16.9011 13.0387H1.67032V1.96176H16.9011V13.0387Z" fill="#22ABF3"/>
</svg>
