<svg width="19" height="17" viewBox="0 0 19 17" fill="none" xmlns="http://www.w3.org/2000/svg">
<path d="M16.8791 0.763672H1.40659C1.03354 0.763672 0.675769 0.911866 0.411982 1.17565C0.148194 1.43944 0 1.79721 0 2.17027V14.8296C0 15.2027 0.148194 15.5604 0.411982 15.8242C0.675769 16.088 1.03354 16.2362 1.40659 16.2362H16.8791C17.2522 16.2362 17.6099 16.088 17.8737 15.8242C18.1375 15.5604 18.2857 15.2027 18.2857 14.8296V2.17027C18.2857 1.79721 18.1375 1.43944 17.8737 1.17565C17.6099 0.911866 17.2522 0.763672 16.8791 0.763672ZM16.8791 2.17027V11.2032L14.5873 8.91224C14.4566 8.7816 14.3016 8.67796 14.1309 8.60725C13.9602 8.53654 13.7773 8.50015 13.5925 8.50015C13.4078 8.50015 13.2249 8.53654 13.0542 8.60725C12.8835 8.67796 12.7284 8.7816 12.5978 8.91224L10.8396 10.6705L6.97143 6.80235C6.70767 6.53877 6.35003 6.3907 5.97714 6.3907C5.60425 6.3907 5.24662 6.53877 4.98286 6.80235L1.40659 10.3786V2.17027H16.8791ZM1.40659 12.3681L5.97802 7.79664L13.011 14.8296H1.40659V12.3681ZM16.8791 14.8296H15.0004L11.8356 11.6648L13.5938 9.90653L16.8791 13.1927V14.8296Z" fill="#22ABF3"/>
<path d="M13.644 5.4992C13.644 6.32783 12.9722 6.99957 12.1436 6.99957C11.315 6.99957 10.6432 6.32783 10.6432 5.4992C10.6432 4.67057 11.315 3.99884 12.1436 3.99884C12.9722 3.99884 13.644 4.67057 13.644 5.4992Z" fill="#22ABF3"/>
</svg>
