<svg width="62" height="62" viewBox="0 0 62 62" fill="none" xmlns="http://www.w3.org/2000/svg">
<path d="M37.6875 23.7773V33.4844C37.6875 33.7578 37.4141 33.8945 37.1406 33.8945H35.6367C35.5 33.8945 35.3633 33.7578 35.2266 33.7578L30.8516 27.7422V33.4844C30.8516 33.7578 30.5781 33.8945 30.4414 33.8945H28.8008C28.5273 33.8945 28.3906 33.7578 28.3906 33.4844V23.7773C28.3906 23.5039 28.5273 23.3672 28.8008 23.3672H30.4414C30.5781 23.3672 30.7148 23.3672 30.7148 23.5039L35.2266 29.5195V23.7773C35.2266 23.5039 35.3633 23.3672 35.6367 23.3672H37.1406C37.4141 23.2305 37.6875 23.5039 37.6875 23.7773ZM26.4766 23.2305C26.6133 23.2305 26.8867 23.5039 26.8867 23.7773V33.4844C26.8867 33.7578 26.6133 33.8945 26.4766 33.8945H24.8359C24.5625 33.8945 24.4258 33.7578 24.4258 33.4844V23.7773C24.4258 23.5039 24.5625 23.2305 24.8359 23.2305H26.4766ZM22.6484 31.4336C22.9219 31.4336 23.0586 31.707 23.0586 31.8438V33.4844C23.0586 33.6211 22.9219 33.8945 22.6484 33.8945H16.3594C16.2227 33.8945 16.2227 33.7578 16.0859 33.7578C16.0859 33.6211 15.9492 33.6211 15.9492 33.4844V23.7773C15.9492 23.5039 16.2227 23.2305 16.3594 23.2305H18C18.2734 23.2305 18.4102 23.5039 18.4102 23.7773V31.4336H22.6484ZM45.8906 23.2305C46.0273 23.2305 46.3008 23.5039 46.3008 23.7773V25.2812C46.3008 25.5547 46.0273 25.6914 45.8906 25.6914H41.6523V27.332H45.8906C46.0273 27.332 46.3008 27.6055 46.3008 27.7422V29.3828C46.3008 29.6562 46.0273 29.793 45.8906 29.793H41.6523V31.4336H45.8906C46.0273 31.4336 46.3008 31.707 46.3008 31.8438V33.4844C46.3008 33.7578 46.0273 33.8945 45.8906 33.8945H39.6016C39.3281 33.8945 39.1914 33.6211 39.1914 33.4844V23.7773C39.1914 23.5039 39.3281 23.2305 39.6016 23.2305H45.8906ZM61.75 11.3359V50.3008C61.6133 56.4531 56.6914 61.5117 50.5391 61.375H11.5742C5.42188 61.375 0.363281 56.4531 0.5 50.3008V11.1992C0.5 5.18359 5.42188 0.125 11.5742 0.125H50.6758C56.6914 0.261719 61.75 5.18359 61.75 11.3359ZM53.2734 28.1523C53.2734 18.1719 43.293 9.96875 30.9883 9.96875C18.6836 9.96875 8.70312 18.1719 8.70312 28.1523C8.70312 37.0391 16.6328 44.5586 27.2969 45.9258C29.8945 46.4727 29.6211 47.4297 29.0742 50.9844C28.9375 51.5312 28.5273 53.1719 30.9883 52.2148C33.3125 51.2578 43.8398 44.6953 48.4883 39.2266C51.7695 35.6719 53.2734 32.1172 53.2734 28.1523Z" fill="white"/>
</svg>
