<?xml version="1.0" encoding="UTF-8"?>
<svg id="Layer_1" data-name="Layer 1" xmlns="http://www.w3.org/2000/svg" viewBox="0 0 365.5 101.4">
  <defs>
    <style>
      .cls-1 {
        stroke: #ef4136;
        stroke-width: 16px;
      }

      .cls-1, .cls-2, .cls-3, .cls-4, .cls-5, .cls-6 {
        stroke-miterlimit: 10;
      }

      .cls-1, .cls-2, .cls-3, .cls-5, .cls-6 {
        fill: none;
      }

      .cls-2 {
        stroke-width: 14px;
      }

      .cls-2, .cls-5 {
        stroke: #be1e2d;
      }

      .cls-7 {
        fill: #231f20;
        stroke-width: 0px;
      }

      .cls-3, .cls-4, .cls-5 {
        stroke-width: 18px;
      }

      .cls-3, .cls-4, .cls-6 {
        stroke: #ed1c24;
      }

      .cls-4 {
        fill: #fff;
      }

      .cls-6 {
        stroke-width: 10px;
      }
    </style>
  </defs>
  <g id="marketing-masks">
    <mask id="mask-marketing-m">
      <path id="mask-M" class="cls-7" d="m24.88,4.39l23.74,67.03L72.24,4.39h25.01v92.42h-19.11v-25.26l1.9-43.61-24.95,68.87h-13.08L17.14,28l1.9,43.54v25.26H0V4.39h24.88Z"/>
    </mask>
    <mask id="mask-marketing-i">
      <path id="mask-i" class="cls-7" d="m151.54,10.36c0-2.75.92-5.01,2.76-6.79s4.35-2.67,7.52-2.67,5.63.89,7.49,2.67c1.86,1.78,2.79,4.04,2.79,6.79s-.94,5.08-2.82,6.86c-1.88,1.78-4.37,2.67-7.46,2.67s-5.58-.89-7.46-2.67c-1.88-1.78-2.82-4.06-2.82-6.86Zm19.49,86.46h-18.41V28.13h18.41v68.68Z"/>
    </mask>
    <mask id="mask-marketing-s">
      <path id="mask-s" class="cls-7" d="m262.07,78.02c0-2.24-1.11-4.01-3.33-5.3-2.22-1.29-5.79-2.44-10.7-3.46-16.33-3.43-24.5-10.37-24.5-20.82,0-6.09,2.53-11.18,7.59-15.27,5.06-4.08,11.67-6.13,19.84-6.13,8.72,0,15.69,2.05,20.92,6.16,5.23,4.1,7.84,9.44,7.84,16h-18.34c0-2.62-.85-4.79-2.54-6.51-1.69-1.71-4.34-2.57-7.93-2.57-3.09,0-5.48.7-7.17,2.09-1.69,1.4-2.54,3.17-2.54,5.33,0,2.03.96,3.67,2.89,4.92,1.92,1.25,5.17,2.33,9.74,3.24,4.57.91,8.42,1.94,11.55,3.08,9.69,3.55,14.54,9.71,14.54,18.47,0,6.26-2.69,11.33-8.06,15.2-5.38,3.87-12.31,5.81-20.82,5.81-5.76,0-10.87-1.03-15.33-3.08-4.47-2.05-7.97-4.87-10.51-8.44-2.54-3.58-3.81-7.44-3.81-11.58h17.39c.17,3.26,1.38,5.76,3.62,7.49,2.24,1.74,5.25,2.6,9.01,2.6,3.51,0,6.17-.67,7.97-2s2.7-3.08,2.7-5.24Z"/>
    </mask>
    <mask id="mask-marketing-t">
    <path id="mask-t" class="cls-7" d="m352.94,11.24v16.88h11.74v13.46h-11.74v34.28c0,2.54.49,4.36,1.46,5.46.97,1.1,2.83,1.65,5.59,1.65,2.03,0,3.83-.15,5.4-.44v13.9c-3.6,1.1-7.3,1.65-11.11,1.65-12.87,0-19.42-6.5-19.68-19.49v-37.01h-10.03v-13.46h10.03V11.24h18.34Z"/>
    </mask>
  </g>
  <g id="marketting-lab">
  <polyline mask="url(#mask-marketing-m)" id="marketting-char-m" class="cls-4" points="9.01 96.81 9.01 13.36 18.66 13.36 46.83 88.23 51.01 88.23 78.14 13.36 88.05 13.36 88.05 96.81"/>
  <path mask="url(#mask-marketing-i)"
      id="marketing-char-i" class="cls-6" d="m162.07,15.05s5.55.98,5.68-4.66-5.68-5.38-5.68-5.38c0,0-5.28-.46-5.54,5.38s5.54,4.66,5.54,4.66Z"/>
  <line mask="url(#mask-marketing-i)" id="marketing-char-i" class="cls-3" x1="161.83" y1="28.13" x2="161.83" y2="96.81"/>
  <path mask="url(#mask-marketing-s)" id="marketing-char-s" class="cls-1" d="m271.33,49.01c0-10.55-10.81-16.1-16.83-16.84-5.35-.66-10.67-.13-15.35,3.31-3.76,2.76-7.84,10.38-4.88,17.79,4.73,11.8,14.78,7.4,20.12,8.06,6.3.77,8.93,1.74,13.4,8.51,3.54,5.35.22,19.88-9.65,22.44-6.52,1.69-13.83,1.43-18-.48-9.59-4.4-10.17-16.82-10.17-16.82"/>
  <path mask="url(#mask-marketing-t)" id="marketing-char-t"  class="cls-5" d="m343.54,11.24v67.91s.4,4.14,1.44,6.04,3.23,2.76,3.23,2.76c0,1.63,4.14,2.29,5.01,2.12s12.17-.03,12.17-.03"/>
  <line mask="url(#mask-marketing-t)" id="marketing-char-t"  class="cls-2" x1="324.57" y1="34.94" x2="364.69" y2="34.94"/>
  </g>
</svg>