<svg width="36" height="36" viewBox="0 0 36 36" fill="none" xmlns="http://www.w3.org/2000/svg">
<g clip-path="url(#clip0_14_3210)">
<path d="M7.5 7.5H33L30 21H10.5M10.5 21L6 3H0M10.5 21L12 27H31.5M28.5 34.5C28.1022 34.5 27.7206 34.342 27.4393 34.0607C27.158 33.7794 27 33.3978 27 33C27 32.6022 27.158 32.2206 27.4393 31.9393C27.7206 31.658 28.1022 31.5 28.5 31.5C28.8978 31.5 29.2794 31.658 29.5607 31.9393C29.842 32.2206 30 32.6022 30 33C30 33.3978 29.842 33.7794 29.5607 34.0607C29.2794 34.342 28.8978 34.5 28.5 34.5ZM13.5 34.5C13.1022 34.5 12.7206 34.342 12.4393 34.0607C12.158 33.7794 12 33.3978 12 33C12 32.6022 12.158 32.2206 12.4393 31.9393C12.7206 31.658 13.1022 31.5 13.5 31.5C13.8978 31.5 14.2794 31.658 14.5607 31.9393C14.842 32.2206 15 32.6022 15 33C15 33.3978 14.842 33.7794 14.5607 34.0607C14.2794 34.342 13.8978 34.5 13.5 34.5Z" stroke="#0055A3" stroke-width="4" stroke-linejoin="round"/>
</g>
<defs>
<clipPath id="clip0_14_3210">
<rect width="36" height="36" fill="white"/>
</clipPath>
</defs>
</svg>
